<svg xmlns="http://www.w3.org/2000/svg" width="64" height="64" viewBox="0 0 64 64">
    <g data-name="Group 109">
        <g data-name="Ellipse 18" style="stroke:#ff7d26;fill:#fff">
            <circle cx="32" cy="32" r="32" style="stroke:none"/>
            <circle cx="32" cy="32" r="31.5" style="fill:none"/>
        </g>
        <g data-name="Icon feather-camera">
            <path data-name="Path 300" d="M34.5 28.5a3 3 0 0 1-3 3h-27a3 3 0 0 1-3-3V12a3 3 0 0 1 3-3h6l3-4.5h9l3 4.5h6a3 3 0 0 1 3 3z" style="stroke-linecap:round;stroke-linejoin:round;stroke-width:3px;fill:none;stroke:#ff7d26" transform="translate(14 14)"/>
            <path data-name="Path 301" d="M24 19.5a6 6 0 1 1-6-6 6 6 0 0 1 6 6z" style="stroke-linecap:round;stroke-linejoin:round;stroke-width:3px;fill:none;stroke:#ff7d26" transform="translate(14 14)"/>
        </g>
    </g>
</svg>
